<?xml version="1.0" encoding="UTF-8"?>
<svg id="Layer_2" data-name="Layer 2" xmlns="http://www.w3.org/2000/svg" viewBox="0 0 173.99 75.51">
  <defs>
    <style>
      .cls-1 {
        fill: #3c2dda;
      }

      .cls-1, .cls-2 {
        stroke-width: 0px;
      }

      .cls-2 {
        fill: #040d43;
      }
    </style>
  </defs>
  <g id="Layer_1-2" data-name="Layer 1">
    <g>
      <rect class="cls-1" x="163.26" y="-1.02" width="2" height="77.55" rx="1" ry="1" transform="translate(315.36 112.44) rotate(-166.64)"/>
      <g>
        <path class="cls-1" d="m4.46,30.65c-.08.61-.39,1.16-.9,1.58-.97.82-2.4.82-3.12-.01-.36-.42-.5-.96-.42-1.56l2.24-15.94c.08-.59.37-1.13.84-1.56.97-.87,2.43-.87,3.16-.01.37.43.52.97.43,1.58l-2.24,15.94h0Z"/>
        <path class="cls-1" d="m16.61,30.65c-.08.61-.39,1.16-.9,1.58-.97.82-2.4.82-3.12-.01-.36-.42-.5-.96-.42-1.56l2.24-15.94c.08-.59.37-1.13.84-1.56.97-.87,2.43-.87,3.16-.01.37.43.52.97.43,1.58l-2.24,15.94h0Z"/>
        <path class="cls-1" d="m10.29,20.45c.61,0,1.12.23,1.48.67.7.85.5,2.29-.45,3.12-.48.42-1.05.64-1.65.64H3.05c-.59,0-1.1-.21-1.48-.63-.75-.84-.54-2.3.43-3.16.49-.43,1.07-.65,1.67-.65h6.62Z"/>
        <path class="cls-1" d="m31.81,32.73h-10.36c-.61,0-1.12-.22-1.48-.64s-.5-.96-.42-1.56l2.21-15.68c.08-.6.38-1.14.85-1.56.48-.43,1.06-.67,1.67-.67h10.36c.59,0,1.08.22,1.43.63s.5.94.41,1.52c-.08.59-.38,1.12-.85,1.52-.47.39-1.02.6-1.59.6h-8.13l-.51,3.63h7.2c.59,0,1.08.21,1.43.63s.5.94.42,1.53c-.08.59-.38,1.12-.86,1.52-.46.39-1.01.6-1.59.6h-7.2l-.51,3.65h8.13c.59,0,1.08.22,1.43.63.35.41.5.93.41,1.52s-.38,1.12-.85,1.52c-.47.39-1.02.6-1.59.6"/>
        <path class="cls-1" d="m51.38,32.86c-.71,0-1.29-.32-1.64-.92l-3.85-5.88-5.47,5.93c-.7.72-1.39.87-1.85.87-.57,0-1.06-.22-1.41-.63h0c-.35-.41-.49-.93-.41-1.5.07-.5.29-.97.63-1.35l6.4-6.71-4.45-6.62c-.26-.43-.34-.88-.27-1.38.08-.61.38-1.14.85-1.55.74-.65,1.8-.81,2.61-.39.3.17.53.38.7.65l3.79,5.86,5.47-5.93c.74-.92,2.42-1.1,3.23-.2.37.41.52.94.44,1.54-.06.45-.26.89-.58,1.25l-6.42,6.76,4.49,6.68c.25.32.35.8.28,1.33-.08.6-.37,1.13-.83,1.55-.48.43-1.05.65-1.68.65"/>
        <path class="cls-1" d="m71.66,32.86c-.44,0-.83-.12-1.17-.36-.34-.24-.57-.57-.7-.97l-.94-3.43h-7.4l-1.89,3.39c-.26.43-.58.76-.98,1-.99.59-2.18.45-2.78-.29h0c-.34-.42-.48-.96-.39-1.55.04-.28.15-.58.34-.92l8.77-15.56c.28-.48.63-.87,1.05-1.17.48-.35,1.03-.52,1.64-.52h.26c.6,0,1.1.17,1.49.52.34.31.59.7.72,1.16l4.4,15.56c.1.34.12.64.08.92-.08.59-.37,1.13-.83,1.54-.48.43-1.06.65-1.69.65m-7.84-8.98h3.85l-1.28-4.64-2.58,4.64h0Z"/>
        <path class="cls-1" d="m91.72,32.86c-.57,0-1.09-.19-1.5-.54-.41-.34-.67-.81-.76-1.36l-1.75-10.02-4.58,10.03c-.24.54-.63,1.01-1.14,1.36-1.03.7-2.32.7-3.12.03-.39-.32-.65-.77-.78-1.34l-2.88-15.59c-.05-.32-.05-.55-.02-.76.05-.57.33-1.12.82-1.55.85-.75,2.22-.85,2.98-.12.32.3.52.68.6,1.16l1.8,11.01,4.91-10.95c.21-.5.58-.93,1.05-1.25.96-.63,2.14-.63,2.91,0,.39.32.64.75.72,1.26l1.83,10.94,4.89-11c.21-.48.53-.87.94-1.17.94-.71,2.3-.63,2.94.13.37.43.5.98.37,1.61-.02.15-.09.39-.21.66l-7.27,15.59c-.3.61-.69,1.05-1.16,1.38-.5.34-1.05.5-1.61.5"/>
        <path class="cls-1" d="m114.67,32.86c-.44,0-.83-.12-1.17-.36-.34-.24-.57-.57-.7-.97l-.94-3.43h-7.39l-1.89,3.39c-.26.43-.58.76-.98,1-.99.59-2.18.45-2.78-.29h0c-.34-.42-.48-.96-.39-1.55.04-.28.15-.58.34-.92l8.77-15.56c.28-.48.63-.87,1.05-1.17.49-.35,1.04-.52,1.64-.52h.26c.6,0,1.1.17,1.49.52.34.31.59.7.72,1.16l4.4,15.56c.1.34.12.64.08.92-.08.59-.37,1.13-.83,1.54-.48.43-1.06.65-1.69.65m-7.84-8.98h3.85l-1.28-4.64-2.58,4.64h0Z"/>
        <path class="cls-1" d="m132.67,32.86c-.71,0-1.29-.32-1.64-.92l-6.51-10.29,5.19-.05,5.2,7.73c.17.21.37.65.28,1.33-.08.59-.37,1.13-.83,1.54-.48.43-1.05.65-1.69.65"/>
        <path class="cls-1" d="m120.79,32.86c-.6,0-1.11-.22-1.48-.64-.36-.42-.5-.96-.42-1.56l2.22-15.81c.08-.6.38-1.14.85-1.56.48-.43,1.06-.67,1.67-.67h6.02c2.58,0,4.49.57,5.69,1.68,1.25,1.16,1.76,2.72,1.49,4.6-.23,1.6-1.5,6.8-8.51,6.8h-4.3l-.7,4.95c-.08.61-.39,1.16-.89,1.58-.48.41-1.05.63-1.65.63m3.84-11.46h3.63c1.26,0,2.29-.23,3.04-.7.63-.39.97-.89,1.07-1.61.1-.7-.06-1.19-.48-1.54-.34-.28-1.17-.63-3.13-.63h-3.5l-.63,4.47h0Z"/>
        <path class="cls-1" d="m149.56,32.73h-10.36c-.61,0-1.12-.22-1.48-.65-.36-.42-.5-.96-.41-1.56l2.21-15.68c.08-.59.38-1.14.84-1.56.48-.44,1.06-.67,1.68-.67h10.36c.59,0,1.08.22,1.43.63.35.41.5.94.41,1.52-.08.59-.38,1.12-.85,1.52-.47.39-1.02.6-1.59.6h-8.13l-.51,3.63h7.2c.59,0,1.08.21,1.43.63s.5.94.42,1.53c-.08.59-.38,1.12-.86,1.52-.46.39-1.01.6-1.59.6h-7.2l-.51,3.65h8.13c.59,0,1.08.22,1.43.63.35.41.5.93.41,1.52s-.38,1.12-.85,1.52c-.47.39-1.02.6-1.59.6"/>
      </g>
      <g>
        <path class="cls-2" d="m99.69,48.82c-.56-.56-1.28-.99-2.16-1.31s-1.95-.47-3.21-.47c-1.4,0-2.56.17-3.47.52-.91.35-1.63.82-2.16,1.4-.53.58-.9,1.25-1.11,1.99-.21.74-.31,1.49-.31,2.24v7.45c0,.37.14.71.41.98.27.27.59.41.98.41h.17c.36,0,.68-.14.96-.41s.42-.59.42-.98v-7.45c0-.4.03-.79.1-1.18.06-.39.23-.73.5-1.04s.68-.56,1.23-.74c.55-.19,1.31-.29,2.28-.29.91,0,1.65.09,2.18.25.53.17.94.41,1.23.71.29.3.47.64.56,1.04.08.39.12.81.12,1.25v7.45c0,.37.13.71.41.98.27.27.59.41.98.41h.17c.37,0,.71-.13.98-.39s.41-.59.41-.98v-7.45c0-.86-.12-1.67-.37-2.42-.25-.75-.65-1.4-1.22-1.96h-.03Z"/>
        <path class="cls-2" d="m84.12,55.23c.56-.49.84-1.13.84-1.92,0-.98-.17-1.86-.51-2.64-.34-.78-.83-1.44-1.45-1.97s-1.37-.95-2.25-1.24c-.88-.29-1.85-.44-2.92-.44s-2.17.17-3.13.49c-.98.32-1.82.8-2.55,1.43-.72.63-1.3,1.41-1.72,2.35-.42.94-.63,2.02-.63,3.24s.21,2.31.63,3.24c.42.94.99,1.72,1.72,2.35.72.63,1.58,1.11,2.55,1.43s2.02.49,3.13.49c.45,0,1.08-.06,1.88-.17.79-.11,1.58-.3,2.36-.54.78-.24,1.45-.56,2.02-.93s.85-.84.85-1.38c0-.4-.14-.72-.42-.98-.28-.24-.62-.37-1.03-.37-.24,0-.48.07-.71.21-.26.16-.58.33-.96.51s-.78.35-1.21.5c-.43.15-.88.27-1.35.37-.47.1-.95.15-1.42.15-1.26,0-2.36-.3-3.3-.91-.94-.6-1.55-1.45-1.85-2.56h9.38c.78,0,1.46-.24,2.02-.73h0Zm-2.3-2.07c-.06.16-.23.24-.49.24h-8.59c.14-.56.37-1.07.68-1.52s.7-.85,1.16-1.18c.45-.33.97-.58,1.52-.76s1.16-.26,1.79-.26c.42,0,.87.05,1.34.15.47.1.91.26,1.3.49.39.23.71.52.98.9.25.37.39.82.41,1.34,0,.26-.03.47-.1.63h0Z"/>
        <path class="cls-2" d="m116.99,54.18c-.97-.67-2.26-1.04-3.88-1.09l-3.67-.13c-.24,0-.51-.03-.8-.08-.29-.05-.56-.14-.82-.26-.25-.12-.47-.28-.64-.46-.17-.18-.26-.42-.26-.7,0-.31.1-.58.31-.8s.48-.4.8-.54c.32-.14.69-.24,1.09-.3s.78-.1,1.16-.1c1.09,0,1.98.1,2.68.31.7.21,1.32.44,1.86.68.14.07.28.14.41.2s.28.1.44.1c.35,0,.67-.12.98-.36.3-.24.44-.57.44-.98,0-.38-.19-.73-.57-1.05-.37-.31-.87-.59-1.47-.83s-1.29-.42-2.05-.55-1.52-.2-2.27-.2c-1.28,0-2.34.13-3.19.38-.85.25-1.53.58-2.05,1-.51.41-.88.88-1.09,1.39-.21.51-.31,1.04-.31,1.56,0,.56.1,1.09.31,1.58.21.49.53.92.96,1.3.43.37.97.68,1.61.92.64.24,1.4.37,2.26.38l4.23.13c.23,0,.47.03.72.1.25.06.49.16.7.29s.38.3.52.5.21.44.21.72c0,.4-.13.73-.39.98-.26.25-.59.46-.98.62s-.82.27-1.26.33-.84.1-1.19.1c-.31,0-.7-.02-1.16-.05-.45-.03-.96-.11-1.51-.23-.55-.11-1.12-.27-1.72-.47-.59-.2-1.19-.47-1.79-.8-.21-.1-.43-.16-.65-.16-.28.02-.51.08-.71.18-.19.09-.36.24-.5.44s-.21.48-.21.83c0,.47.24.9.73,1.27s1.13.69,1.92.95c.78.25,1.67.44,2.66.57.98.13,1.96.2,2.94.2,1.18,0,2.18-.12,3.02-.37s1.53-.57,2.07-1c.54-.42.94-.91,1.19-1.47s.38-1.16.38-1.79c0-1.49-.48-2.57-1.45-3.24h-.02Z"/>
        <path class="cls-2" d="m141.03,47.5h-.21c-.37,0-.68.13-.95.38-.26.25-.39.57-.39.96v11.71c0,.37.13.68.39.95.26.26.57.39.95.39h.21c.37,0,.68-.14.95-.41.26-.27.39-.58.39-.93v-11.71c0-.37-.13-.68-.39-.95-.26-.26-.57-.39-.95-.39Z"/>
        <path class="cls-2" d="m140.92,41.71c-.46,0-.84.16-1.14.47-.3.31-.45.69-.45,1.11s.15.8.45,1.12c.3.32.68.49,1.14.49.43,0,.8-.16,1.11-.46s.47-.69.47-1.15-.15-.84-.45-1.14c-.3-.3-.68-.45-1.14-.45h0Z"/>
        <path class="cls-2" d="m67.58,59.15h-1.79c-.39,0-.78-.03-1.17-.1s-.73-.23-1.04-.5-.64-.82-.83-1.37-.19-1.16-.19-2.12l-.02-.84v-3.86h3.48c.37,0,.7-.14.97-.42s.4-.59.4-.95v-.16c0-.37-.13-.7-.4-.97-.27-.27-.59-.4-.97-.4h-3.48v-4.38c0-.41-.14-.74-.42-.99-.28-.25-.59-.37-.95-.37h-.27c-.36,0-.68.12-.95.37-.28.25-.42.58-.42.69v12.17c0,1.71.17,2.76.52,3.67s.78,1.51,1.36,2.04c.58.53,1.4.9,2.13,1.1.73.21,1.48.3,2.23.3h1.79c.37,0,.7-.13.97-.4s.4-.59.4-.97v-.16c0-.36-.13-.68-.4-.95-.27-.28-.59-.42-.97-.42v-.03Z"/>
        <path class="cls-2" d="m134.45,49.24c-.67-.69-1.52-1.24-2.56-1.65-1.04-.42-2.26-.62-3.67-.62s-2.63.21-3.66.62c-1.03.42-1.87.98-2.56,1.67-.68.7-1.18,1.5-1.51,2.41-.33.91-.49,1.86-.49,2.87s.17,1.94.51,2.86c.34.91.84,1.72,1.51,2.42.67.7,1.52,1.25,2.56,1.67s2.25.65,3.64.63c1.38-.03,2.69-.42,3.12-.63.51-.24,1.14-.91.62-1.99-.36-.74-1.21-.66-1.78-.5-.36.1-.92.29-1.96.38-.9.08-1.68-.13-2.33-.4-.65-.26-1.19-.62-1.63-1.07s-.76-.97-.97-1.55-.32-1.19-.32-1.83.1-1.25.32-1.84c.21-.59.53-1.11.96-1.55.43-.44.97-.79,1.63-1.06.66-.26,1.45-.4,2.34-.4s1.68.13,2.34.4c.66.26,1.2.62,1.63,1.06.43.44.74.95.96,1.53.21.58.32,1.2.32,1.85v6.17c0,.38.14.71.41.98s.6.41.98.41h.17c.38,0,.71-.13.98-.4.27-.26.41-.6.41-1v-6.32c-.02-.95-.18-1.86-.49-2.73-.33-.91-.83-1.72-1.5-2.41h0Z"/>
        <path class="cls-2" d="m151.13,47.7c0,1.86-1.52,3.14-3.09,3.14s-3.09-1.28-3.09-3.14,1.52-3.14,3.09-3.14,3.09,1.28,3.09,3.14Zm-5.6,0c0,1.55,1.24,2.61,2.51,2.61s2.52-1.05,2.52-2.61-1.24-2.6-2.52-2.6-2.51,1.05-2.51,2.6Zm3.75-.66c0,.51-.32.9-.9,1.02l.96,1.3h-.47l-.93-1.28h-.64v1.28h-.42v-3.39h1.13c.78,0,1.26.45,1.26,1.06h0Zm-1.98-.67v1.32h.73c.51,0,.81-.23.81-.65s-.3-.67-.81-.67h-.73Z"/>
      </g>
    </g>
  </g>
</svg>