<?xml version="1.0" encoding="UTF-8"?>
<svg id="Layer_2" data-name="Layer 2" xmlns="http://www.w3.org/2000/svg" viewBox="0 0 298.37 43.84">
  <defs>
    <style>
      .cls-1 {
        fill: #3c2dda;
      }

      .cls-1, .cls-2 {
        stroke-width: 0px;
      }

      .cls-2 {
        fill: #040d43;
      }
    </style>
  </defs>
  <g id="Layer_1-2" data-name="Layer 1">
    <g>
      <g>
        <path class="cls-1" d="m4.46,30.85c-.08.61-.39,1.16-.9,1.58-.97.82-2.4.82-3.12-.01-.36-.42-.5-.96-.42-1.56l2.24-15.94c.08-.59.37-1.13.84-1.56.97-.87,2.43-.87,3.16-.01.37.43.52.97.43,1.58l-2.24,15.94h0Z"/>
        <path class="cls-1" d="m16.61,30.85c-.08.61-.39,1.16-.9,1.58-.97.82-2.4.82-3.12-.01-.36-.42-.5-.96-.42-1.56l2.24-15.94c.08-.59.37-1.13.84-1.56.97-.87,2.43-.87,3.16-.01.37.43.52.97.43,1.58l-2.24,15.94h0Z"/>
        <path class="cls-1" d="m10.29,20.65c.61,0,1.12.23,1.48.67.7.85.5,2.29-.45,3.12-.48.42-1.05.64-1.65.64H3.05c-.59,0-1.1-.21-1.48-.63-.75-.84-.54-2.3.43-3.16.49-.43,1.07-.65,1.67-.65h6.62Z"/>
        <path class="cls-1" d="m31.81,32.93h-10.36c-.61,0-1.12-.22-1.48-.64s-.5-.96-.42-1.56l2.21-15.68c.08-.6.38-1.14.85-1.56.48-.43,1.06-.67,1.67-.67h10.36c.59,0,1.08.22,1.43.63s.5.94.41,1.52c-.08.59-.38,1.12-.85,1.52-.47.39-1.02.6-1.59.6h-8.13l-.51,3.63h7.2c.59,0,1.08.21,1.43.63s.5.94.42,1.53c-.08.59-.38,1.12-.86,1.52-.46.39-1.01.6-1.59.6h-7.2l-.51,3.65h8.13c.59,0,1.08.22,1.43.63.35.41.5.93.41,1.52s-.38,1.12-.85,1.52c-.47.39-1.02.6-1.59.6"/>
        <path class="cls-1" d="m51.38,33.06c-.71,0-1.29-.32-1.64-.92l-3.85-5.88-5.47,5.93c-.7.72-1.39.87-1.85.87-.57,0-1.06-.22-1.41-.63h0c-.35-.41-.49-.93-.41-1.5.07-.5.29-.97.63-1.35l6.4-6.71-4.45-6.62c-.26-.43-.34-.88-.27-1.38.08-.61.38-1.14.85-1.55.74-.65,1.8-.81,2.61-.39.3.17.53.38.7.65l3.79,5.86,5.47-5.93c.74-.92,2.42-1.1,3.23-.2.37.41.52.94.44,1.54-.06.45-.26.89-.58,1.25l-6.42,6.76,4.49,6.68c.25.32.35.8.28,1.33-.08.6-.37,1.13-.83,1.55-.48.43-1.05.65-1.68.65"/>
        <path class="cls-1" d="m71.66,33.06c-.44,0-.83-.12-1.17-.36-.34-.24-.57-.57-.7-.97l-.94-3.43h-7.4l-1.89,3.39c-.26.43-.58.76-.98,1-.99.59-2.18.45-2.78-.29h0c-.34-.42-.48-.96-.39-1.55.04-.28.15-.58.34-.92l8.77-15.56c.28-.48.63-.87,1.05-1.17.48-.35,1.03-.52,1.64-.52h.26c.6,0,1.1.17,1.49.52.34.31.59.7.72,1.16l4.4,15.56c.1.34.12.64.08.92-.08.59-.37,1.13-.83,1.54-.48.43-1.06.65-1.69.65m-7.84-8.98h3.85l-1.28-4.64-2.58,4.64h0Z"/>
        <path class="cls-1" d="m91.72,33.06c-.57,0-1.09-.19-1.5-.54-.41-.34-.67-.81-.76-1.36l-1.75-10.02-4.58,10.03c-.24.54-.63,1.01-1.14,1.36-1.03.7-2.32.7-3.12.03-.39-.32-.65-.77-.78-1.34l-2.88-15.59c-.05-.32-.05-.55-.02-.76.05-.57.33-1.12.82-1.55.85-.75,2.22-.85,2.98-.12.32.3.52.68.6,1.16l1.8,11.01,4.91-10.95c.21-.5.58-.93,1.05-1.25.96-.63,2.14-.63,2.91,0,.39.32.64.75.72,1.26l1.83,10.94,4.89-11c.21-.48.53-.87.94-1.17.94-.71,2.3-.63,2.94.13.37.43.5.98.37,1.61-.02.15-.09.39-.21.66l-7.27,15.59c-.3.61-.69,1.05-1.16,1.38-.5.34-1.05.5-1.61.5"/>
        <path class="cls-1" d="m114.67,33.06c-.44,0-.83-.12-1.17-.36-.34-.24-.57-.57-.7-.97l-.94-3.43h-7.39l-1.89,3.39c-.26.43-.58.76-.98,1-.99.59-2.18.45-2.78-.29h0c-.34-.42-.48-.96-.39-1.55.04-.28.15-.58.34-.92l8.77-15.56c.28-.48.63-.87,1.05-1.17.49-.35,1.04-.52,1.64-.52h.26c.6,0,1.1.17,1.49.52.34.31.59.7.72,1.16l4.4,15.56c.1.34.12.64.08.92-.08.59-.37,1.13-.83,1.54-.48.43-1.06.65-1.69.65m-7.84-8.98h3.85l-1.28-4.64-2.58,4.64h0Z"/>
        <path class="cls-1" d="m132.67,33.06c-.71,0-1.29-.32-1.64-.92l-6.51-10.29,5.19-.05,5.2,7.73c.17.21.37.65.28,1.33-.08.59-.37,1.13-.83,1.54-.48.43-1.05.65-1.69.65"/>
        <path class="cls-1" d="m120.79,33.06c-.6,0-1.11-.22-1.48-.64-.36-.42-.5-.96-.42-1.56l2.22-15.81c.08-.6.38-1.14.85-1.56.48-.43,1.06-.67,1.67-.67h6.02c2.58,0,4.49.57,5.69,1.68,1.25,1.16,1.76,2.72,1.49,4.6-.23,1.6-1.5,6.8-8.51,6.8h-4.3l-.7,4.95c-.08.61-.39,1.16-.89,1.58-.48.41-1.05.63-1.65.63m3.84-11.46h3.63c1.26,0,2.29-.23,3.04-.7.63-.39.97-.89,1.07-1.61.1-.7-.06-1.19-.48-1.54-.34-.28-1.17-.63-3.13-.63h-3.5l-.63,4.47h0Z"/>
        <path class="cls-1" d="m149.56,32.93h-10.36c-.61,0-1.12-.22-1.48-.65-.36-.42-.5-.96-.41-1.56l2.21-15.68c.08-.59.38-1.14.84-1.56.48-.44,1.06-.67,1.68-.67h10.36c.59,0,1.08.22,1.43.63.35.41.5.94.41,1.52-.08.59-.38,1.12-.85,1.52-.47.39-1.02.6-1.59.6h-8.13l-.51,3.63h7.2c.59,0,1.08.21,1.43.63s.5.94.42,1.53c-.08.59-.38,1.12-.86,1.52-.46.39-1.01.6-1.59.6h-7.2l-.51,3.65h8.13c.59,0,1.08.22,1.43.63.35.41.5.93.41,1.52s-.38,1.12-.85,1.52c-.47.39-1.02.6-1.59.6"/>
      </g>
      <rect class="cls-1" x="165.6" y="-.58" width="2" height="45" rx="1" ry="1" transform="translate(323.62 81.74) rotate(-166.64)"/>
      <g>
        <path class="cls-2" d="m231.66,15.34c-.72-.72-1.66-1.29-2.8-1.69-1.14-.41-2.53-.61-4.17-.61-1.82,0-3.32.23-4.51.68-1.17.45-2.11,1.06-2.8,1.82-.69.76-1.16,1.61-1.43,2.57s-.41,1.93-.41,2.9v9.67c0,.49.18.91.53,1.26.35.35.77.53,1.26.53h.21c.46,0,.88-.18,1.24-.53s.54-.77.54-1.26v-9.67c0-.52.05-1.03.12-1.52.08-.51.29-.95.64-1.34s.88-.72,1.59-.96c.71-.25,1.69-.37,2.96-.37,1.19,0,2.13.11,2.82.33.69.23,1.22.53,1.59.91.37.38.61.84.72,1.34.1.51.16,1.05.16,1.61v9.67c0,.49.17.91.53,1.26.35.35.77.53,1.26.53h.21c.49,0,.91-.17,1.26-.51s.53-.77.53-1.28v-9.67c0-1.12-.16-2.17-.49-3.14-.33-.97-.85-1.82-1.58-2.54h-.03Z"/>
        <path class="cls-2" d="m211.47,23.65c.72-.63,1.1-1.47,1.1-2.48,0-1.28-.23-2.42-.67-3.42-.44-1.01-1.07-1.86-1.87-2.55s-1.77-1.23-2.91-1.6c-1.14-.37-2.39-.56-3.78-.56s-2.81.21-4.07.63c-1.26.42-2.36,1.04-3.31,1.85-.94.81-1.68,1.83-2.24,3.05-.54,1.22-.81,2.62-.81,4.2s.27,2.99.81,4.2c.54,1.22,1.29,2.24,2.24,3.05.94.81,2.04,1.43,3.31,1.85s2.62.63,4.07.63c.59,0,1.4-.08,2.44-.23,1.03-.15,2.06-.38,3.06-.7,1.01-.32,1.89-.72,2.62-1.21s1.11-1.08,1.11-1.78c0-.52-.18-.94-.54-1.26-.36-.32-.8-.47-1.33-.47-.32,0-.62.09-.91.27-.34.2-.76.43-1.24.67s-1.02.45-1.57.64c-.55.19-1.14.35-1.75.47-.61.12-1.23.19-1.84.19-1.64,0-3.06-.4-4.28-1.17-1.22-.78-2.01-1.89-2.41-3.32h12.16c1.02,0,1.9-.32,2.62-.95h.01Zm-2.98-2.69c-.08.2-.29.3-.63.3h-11.14c.18-.72.47-1.39.88-1.98.41-.59.9-1.11,1.5-1.54.59-.43,1.25-.76,1.98-.98s1.5-.34,2.32-.34c.54,0,1.13.07,1.74.19.61.12,1.17.34,1.68.63.51.29.93.68,1.26,1.16.33.47.51,1.06.53,1.74,0,.34-.05.61-.12.81h0Z"/>
        <path class="cls-2" d="m254.09,22.3c-1.25-.87-2.93-1.34-5.04-1.41l-4.77-.17c-.32,0-.67-.03-1.04-.1-.37-.07-.72-.18-1.06-.34-.33-.16-.61-.36-.84-.6-.23-.24-.34-.54-.34-.9,0-.41.14-.76.41-1.04s.62-.52,1.04-.7c.42-.18.89-.32,1.41-.4s1.02-.12,1.5-.12c1.41,0,2.56.14,3.48.41.9.27,1.72.56,2.42.88.18.09.36.18.53.26s.36.12.56.12c.45,0,.87-.16,1.26-.46.38-.3.58-.73.58-1.28,0-.5-.25-.95-.73-1.37-.49-.41-1.13-.77-1.91-1.07s-1.67-.54-2.65-.71-1.97-.26-2.95-.26c-1.66,0-3.04.17-4.13.5-1.11.33-1.99.76-2.65,1.3-.67.53-1.14,1.14-1.41,1.81s-.41,1.34-.41,2.02c0,.72.14,1.41.41,2.04s.69,1.2,1.24,1.68c.55.49,1.25.88,2.09,1.2.84.3,1.82.47,2.93.5l5.49.17c.29,0,.61.05.94.12.33.08.63.2.9.37s.5.38.68.64.27.58.27.94c0,.52-.17.95-.51,1.28-.34.33-.77.6-1.28.8s-1.06.35-1.64.43-1.1.12-1.55.12c-.41,0-.9-.02-1.5-.07-.59-.05-1.24-.15-1.95-.29-.71-.15-1.46-.35-2.24-.61-.77-.26-1.55-.61-2.32-1.04-.27-.14-.55-.2-.85-.2-.36.02-.67.1-.91.24-.25.11-.46.3-.64.56s-.27.62-.27,1.07c0,.61.32,1.16.95,1.65s1.47.89,2.48,1.23c1.02.33,2.17.58,3.44.75,1.28.17,2.54.26,3.82.26,1.52,0,2.82-.16,3.92-.47,1.1-.32,1.99-.75,2.69-1.3.7-.54,1.22-1.19,1.55-1.91s.5-1.5.5-2.32c0-1.93-.62-3.33-1.87-4.2h-.02Z"/>
        <path class="cls-2" d="m285.27,13.63h-.27c-.47,0-.88.17-1.23.5-.34.33-.51.75-.51,1.24v15.19c0,.47.17.88.51,1.23.34.34.75.51,1.23.51h.27c.47,0,.88-.18,1.23-.53.34-.35.51-.76.51-1.21v-15.19c0-.47-.17-.88-.51-1.23-.34-.34-.75-.51-1.23-.51Z"/>
        <path class="cls-2" d="m285.14,6.12c-.6,0-1.08.2-1.48.61-.38.41-.59.89-.59,1.45s.19,1.04.59,1.46c.38.42.88.63,1.48.63.55,0,1.04-.2,1.45-.6s.61-.89.61-1.49-.19-1.08-.59-1.48c-.38-.38-.88-.59-1.48-.59h.01Z"/>
        <path class="cls-2" d="m190.01,28.75h-2.33c-.51,0-1.02-.05-1.51-.12s-.95-.29-1.34-.64-.82-1.06-1.07-1.77-.25-1.5-.25-2.76l-.02-1.1v-5h4.52c.49,0,.9-.18,1.25-.54s.52-.77.52-1.23v-.2c0-.49-.17-.9-.52-1.25-.35-.35-.77-.52-1.25-.52h-4.52v-5.68c0-.53-.18-.96-.54-1.29-.36-.33-.77-.49-1.23-.49h-.35c-.46,0-.88.16-1.23.49-.36.33-.54.76-.54.89v15.79c0,2.21.23,3.58.68,4.75s1.02,1.95,1.76,2.64c.76.69,1.82,1.16,2.77,1.42.95.27,1.92.4,2.89.4h2.33c.49,0,.9-.17,1.25-.52s.52-.77.52-1.25v-.2c0-.46-.17-.88-.52-1.23-.35-.36-.77-.54-1.25-.54v-.03Z"/>
        <path class="cls-2" d="m276.75,15.89c-.87-.89-1.98-1.6-3.32-2.15-1.34-.54-2.93-.8-4.75-.8s-3.41.27-4.74.8c-1.33.54-2.43,1.26-3.32,2.17-.88.9-1.54,1.94-1.95,3.13-.43,1.17-.63,2.42-.63,3.73s.21,2.52.66,3.72c.44,1.19,1.08,2.24,1.95,3.14.87.9,1.98,1.63,3.32,2.17,1.34.54,2.91.85,4.72.81,1.8-.03,3.49-.54,4.04-.81.66-.32,1.48-1.19.8-2.59-.46-.96-1.57-.86-2.3-.64-.46.14-1.2.37-2.54.5-1.16.1-2.18-.17-3.03-.52-.85-.34-1.55-.8-2.11-1.39s-.98-1.25-1.25-2.01-.42-1.55-.42-2.37.14-1.61.42-2.38c.27-.77.69-1.43,1.24-2.01.55-.58,1.25-1.03,2.11-1.38.86-.34,1.87-.52,3.04-.52s2.18.17,3.04.52c.86.34,1.56.8,2.11,1.38.55.58.96,1.23,1.24,1.99.27.76.42,1.56.42,2.41v8c0,.5.18.93.53,1.28s.78.53,1.28.53h.21c.5,0,.93-.17,1.28-.52.35-.34.53-.78.53-1.3v-8.2c-.02-1.23-.24-2.42-.63-3.55-.43-1.19-1.07-2.24-1.94-3.13h.01Z"/>
        <path class="cls-2" d="m298.37,13.89c0,2.42-1.97,4.08-4.01,4.08s-4.01-1.66-4.01-4.08,1.98-4.08,4.01-4.08,4.01,1.66,4.01,4.08Zm-7.26,0c0,2.01,1.6,3.39,3.25,3.39s3.26-1.37,3.26-3.39-1.6-3.38-3.26-3.38-3.25,1.37-3.25,3.38Zm4.87-.86c0,.66-.42,1.16-1.16,1.32l1.24,1.68h-.61l-1.21-1.66h-.82v1.66h-.54v-4.39h1.47c1.01,0,1.64.59,1.64,1.38h0Zm-2.56-.87v1.72h.95c.67,0,1.05-.29,1.05-.85s-.38-.87-1.05-.87h-.95Z"/>
      </g>
    </g>
  </g>
</svg>